<svg width="30" height="30" viewBox="0 0 30 30" fill="none" xmlns="http://www.w3.org/2000/svg">
<path d="M28.7211 9.85113L20.1489 1.27887C19.7505 0.880333 19.21 0.65637 18.6465 0.65625H2.78125C2.21766 0.65625 1.67716 0.880133 1.27865 1.27865C0.880133 1.67716 0.65625 2.21766 0.65625 2.78125V27.2188C0.65625 27.7823 0.880133 28.3228 1.27865 28.7214C1.67716 29.1199 2.21766 29.3438 2.78125 29.3438H27.2188C27.7823 29.3438 28.3228 29.1199 28.7214 28.7214C29.1199 28.3228 29.3438 27.7823 29.3438 27.2188V11.3535C29.3436 10.79 29.1197 10.2495 28.7211 9.85113ZM7.5625 2.78125H13.9375V6.5H7.5625V2.78125ZM22.4375 27.2188H7.5625V22.4375H22.4375V27.2188ZM27.2188 27.2188H24.5625V21.375C24.5625 21.0932 24.4506 20.823 24.2513 20.6237C24.052 20.4244 23.7818 20.3125 23.5 20.3125H6.5C6.21821 20.3125 5.94796 20.4244 5.7487 20.6237C5.54944 20.823 5.4375 21.0932 5.4375 21.375V27.2188H2.78125V2.78125H5.4375V7.5625C5.4375 7.84429 5.54944 8.11454 5.7487 8.3138C5.94796 8.51306 6.21821 8.625 6.5 8.625H15C15.2818 8.625 15.552 8.51306 15.7513 8.3138C15.9506 8.11454 16.0625 7.84429 16.0625 7.5625V2.78125H18.6465L27.2188 11.3535V27.2188Z" fill="white"/>
</svg>
