<svg width="239" height="78" viewBox="0 0 239 78" fill="none" xmlns="http://www.w3.org/2000/svg">
<path d="M63.0022 51.5021C63.0022 37.5563 74.3075 26.251 88.2533 26.251C102.199 26.251 113.504 37.5563 113.504 51.5021C113.504 65.4479 102.199 76.7532 88.2533 76.7532C74.3075 76.7532 63.0022 65.4479 63.0022 51.5021Z" fill="#00AC8F" fill-opacity="0.65" stroke="#FFF5DC"/>
<path d="M188.006 25.7509C188.006 11.8051 199.312 0.499802 213.257 0.499802C227.203 0.499802 238.509 11.8051 238.509 25.7509C238.509 39.6967 227.203 51.002 213.257 51.002C199.312 51.002 188.006 39.6967 188.006 25.7509Z" fill="#00AC8F" fill-opacity="0.65" stroke="#FFF5DC"/>
<path d="M0.500046 25.751C0.500046 11.8052 11.8053 0.499924 25.7511 0.499924C39.6969 0.499924 51.0022 11.8052 51.0022 25.751C51.0022 39.6968 39.6969 51.0021 25.7511 51.0021C11.8053 51.0021 0.500046 39.6968 0.500046 25.751Z" fill="#00AC8F" fill-opacity="0.65" stroke="#FFF5DC"/>
<path d="M125.504 51.5021C125.504 37.5563 136.809 26.251 150.755 26.251C164.701 26.251 176.006 37.5563 176.006 51.5021C176.006 65.4479 164.701 76.7532 150.755 76.7532C136.809 76.7532 125.504 65.4479 125.504 51.5021Z" fill="#00AC8F" fill-opacity="0.65" stroke="#FFF5DC"/>
</svg>
