<svg width="40" height="40" viewBox="0 0 40 40" fill="none" xmlns="http://www.w3.org/2000/svg">
<path d="M4.52382 3.33335H7.74406V6.90358L4.52382 6.90477V12.8572H35.4762V6.90477H32.3941V3.33335H35.4762C35.9452 3.33335 36.4096 3.42572 36.8429 3.6052C37.2762 3.78468 37.6699 4.04775 38.0016 4.37939C38.3332 4.71103 38.5963 5.10474 38.7758 5.53805C38.9553 5.97135 39.0476 6.43577 39.0476 6.90477V35.4762C39.0476 35.9452 38.9553 36.4096 38.7758 36.8429C38.5963 37.2762 38.3332 37.6699 38.0016 38.0016C37.6699 38.3332 37.2762 38.5963 36.8429 38.7758C36.4096 38.9553 35.9452 39.0476 35.4762 39.0476H4.52382C3.57662 39.0476 2.66821 38.6714 1.99844 38.0016C1.32867 37.3318 0.952393 36.4234 0.952393 35.4762V6.90477C0.952393 5.95757 1.32867 5.04916 1.99844 4.37939C2.66821 3.70962 3.57662 3.33335 4.52382 3.33335ZM35.4762 16.4286H4.52382V35.4762H35.4762V16.4286ZM14.0476 27.1429V30.7143H8.09525V27.1429H14.0476ZM22.9762 27.1429V30.7143H17.0238V27.1429H22.9762ZM31.9048 27.1429V30.7143H25.9524V27.1429H31.9048ZM14.0476 20V23.5714H8.09525V20H14.0476ZM22.9762 20V23.5714H17.0238V20H22.9762ZM31.9048 20V23.5714H25.9524V20H31.9048ZM30.3643 0.952393V6.90477H26.7917V0.952393H30.3631H30.3643ZM24.5512 3.33335V6.90477L15.5881 6.90358V3.33335H24.5512ZM13.5572 0.952393V6.90477H9.98573V0.952393H13.5572Z" fill="#98E4DB"/>
</svg>
