<svg width="151" height="151" viewBox="0 0 151 151" fill="none" xmlns="http://www.w3.org/2000/svg">
<path d="M144.619 69.0119L82.6375 69.0314V6.80017C82.6375 3.35002 79.8375 0.549995 76.3873 0.549995C72.9372 0.549995 70.1375 3.35002 70.1375 6.80017V68.9877L7.17484 68.9531C7.16846 68.9531 7.16241 68.9531 7.15603 68.9531C3.71227 68.9531 0.918623 71.7343 0.905856 75.1845C0.887042 78.6346 3.68102 81.4407 7.13083 81.4531L70.1371 81.4877V143.825C70.1371 147.281 72.9372 150.075 76.387 150.075C79.8368 150.075 82.6371 147.282 82.6371 143.825V81.5314L144.568 81.5119C144.581 81.5119 144.587 81.5119 144.593 81.5119C148.037 81.5119 150.831 78.7307 150.843 75.2805C150.856 71.8304 148.062 69.0243 144.619 69.0119Z" fill="#00FFE0"/>
</svg>
