<svg width="34" height="34" viewBox="0 0 34 34" fill="none" xmlns="http://www.w3.org/2000/svg">
<path d="M30.7211 11.8511L22.1489 3.27887C21.7505 2.88033 21.21 2.65637 20.6465 2.65625H4.78125C4.21766 2.65625 3.67716 2.88013 3.27865 3.27865C2.88013 3.67716 2.65625 4.21766 2.65625 4.78125V29.2188C2.65625 29.7823 2.88013 30.3228 3.27865 30.7214C3.67716 31.1199 4.21766 31.3438 4.78125 31.3438H29.2188C29.7823 31.3438 30.3228 31.1199 30.7214 30.7214C31.1199 30.3228 31.3438 29.7823 31.3438 29.2188V13.3535C31.3436 12.79 31.1197 12.2495 30.7211 11.8511ZM9.5625 4.78125H15.9375V8.5H9.5625V4.78125ZM24.4375 29.2188H9.5625V24.4375H24.4375V29.2188ZM29.2188 29.2188H26.5625V23.375C26.5625 23.0932 26.4506 22.823 26.2513 22.6237C26.052 22.4244 25.7818 22.3125 25.5 22.3125H8.5C8.21821 22.3125 7.94796 22.4244 7.7487 22.6237C7.54944 22.823 7.4375 23.0932 7.4375 23.375V29.2188H4.78125V4.78125H7.4375V9.5625C7.4375 9.84429 7.54944 10.1145 7.7487 10.3138C7.94796 10.5131 8.21821 10.625 8.5 10.625H17C17.2818 10.625 17.552 10.5131 17.7513 10.3138C17.9506 10.1145 18.0625 9.84429 18.0625 9.5625V4.78125H20.6465L29.2188 13.3535V29.2188Z" fill="black"/>
</svg>
