<svg width="51" height="27" viewBox="0 0 51 27" fill="none" xmlns="http://www.w3.org/2000/svg">
<path d="M50.9198 18.0731C50.9378 17.9243 50.9453 17.7739 50.942 17.6231C50.8415 13.0556 47.7007 12.5759 44.0638 12.0204C43.1884 11.8868 42.1963 11.7352 41.1556 11.5221C33.9684 10.0498 27.7274 6.50236 22.6065 0.978277C22.5017 0.865325 22.3747 0.775214 22.2336 0.713585C22.0924 0.651957 21.94 0.620136 21.7859 0.620117H18.0315C17.8131 0.620119 17.5994 0.684082 17.4168 0.804111C17.2343 0.92414 17.0909 1.09498 17.0043 1.29557C15.9778 3.67348 13.7037 5.20999 11.2109 5.20999C8.718 5.20999 6.44397 3.67348 5.41755 1.29557C5.33097 1.09498 5.18755 0.92414 5.00501 0.804111C4.82246 0.684082 4.60877 0.620119 4.3903 0.620117H1.85598C1.56324 0.620116 1.28215 0.734852 1.07302 0.939709C0.86389 1.14457 0.74338 1.42323 0.73734 1.71591C0.703538 3.34747 0.530877 5.05453 0.363988 6.7054C-0.0741411 11.0381 -0.489539 15.1453 1.5003 17.8922C0.781153 18.6741 0.355744 19.7764 0.355744 20.9765V22.1451C0.355744 24.4803 1.99684 26.38 4.01389 26.38H34.0189C41.8596 26.38 47.657 24.7442 49.9244 21.8922C50.8302 20.7526 51.1721 19.4367 50.9198 18.0731ZM2.59044 6.93036C2.72553 5.59418 2.86427 4.22208 2.93446 2.85776H3.68859C5.19059 5.66897 8.06894 7.44775 11.2109 7.44775C14.3528 7.44775 17.2311 5.66897 18.7333 2.85776H21.3015C21.6725 3.24866 22.0512 3.63214 22.4375 4.00796L21.6014 5.0676C21.2186 5.55272 21.3015 6.25632 21.7866 6.63909C22.2719 7.02175 22.9753 6.93872 23.3581 6.45383L24.0899 5.52646C24.5184 5.89811 24.9552 6.26008 25.4 6.61212L24.6308 7.58684C24.447 7.8198 24.3632 8.11625 24.398 8.41096C24.4327 8.70567 24.5831 8.97451 24.8161 9.15834C25.049 9.34216 25.3455 9.42591 25.6402 9.39117C25.9349 9.35643 26.2037 9.20603 26.3876 8.97307L27.1966 7.94783C27.6625 8.27276 28.136 8.58668 28.6167 8.88933L27.9302 9.75935C27.5474 10.2444 27.6303 10.948 28.1155 11.3308C28.6006 11.7135 29.3042 11.6307 29.687 11.1456L30.5656 10.0321C31.0727 10.3084 31.5865 10.5723 32.1066 10.8235L31.5191 11.5678C31.1362 12.0529 31.2191 12.7565 31.7041 13.1393C32.1892 13.5222 32.893 13.4392 33.2756 12.9543L34.2178 11.7604C35.2498 12.1788 36.3004 12.5494 37.3665 12.8711C35.831 15.0256 32.9709 15.9177 30.4387 14.9034C30.3912 14.8714 30.3412 14.8433 30.2893 14.819C26.5434 13.0642 22.9557 10.8617 19.3216 8.08645C19.2808 8.05394 18.9504 7.89118 18.8255 7.85997C18.6261 7.81015 18.155 7.83594 17.9023 8.104C17.8162 8.19539 17.6061 8.48925 17.5864 8.53765C16.6001 10.794 13.8753 12.3679 10.9507 12.3679C9.61028 12.3679 6.33067 11.9926 4.83031 8.51716C4.74373 8.31658 4.60032 8.14573 4.41777 8.0257C4.23523 7.90567 4.02154 7.84171 3.80307 7.84171H2.49904C2.52884 7.53938 2.55958 7.23563 2.59044 6.93036ZM34.0189 24.1422H4.01389C3.24398 24.1422 2.5935 23.2276 2.5935 22.1451V20.9765C2.5935 20.3799 2.79619 19.8175 3.12114 19.4413C4.55825 20.3894 6.49744 20.8533 8.99737 20.8533H47.8564C45.7953 22.9205 40.6958 24.1422 34.0189 24.1422ZM48.6814 17.9097C48.643 18.0817 48.5573 18.2395 48.4339 18.3653C48.276 18.5266 48.0761 18.6156 47.8711 18.6156H8.99749C6.65762 18.6156 4.99179 18.1679 3.92744 17.2499C3.90153 17.2245 3.66774 17.007 3.58542 16.9159C2.25395 15.4431 2.1198 12.9417 2.30789 10.0791H3.10076C4.6202 12.9279 7.50208 14.6054 10.9506 14.6054C14.2799 14.6054 17.3385 13.0503 18.9782 10.6263C22.337 13.1011 25.6782 15.1138 29.153 16.7573C29.2177 16.8046 29.2886 16.8457 29.3653 16.8793C33.1846 18.5534 37.6126 17.0265 39.6304 13.4778C39.9869 13.5615 40.3453 13.6403 40.7065 13.7143C41.8025 13.9388 42.8244 14.0948 43.7259 14.2325C47.5447 14.8157 48.6482 15.0985 48.7047 17.6722C48.7062 17.7372 48.6842 17.8942 48.6814 17.9097Z" fill="#98E4DB"/>
</svg>
